<svg width="211" height="211" viewBox="0 0 211 211" fill="none" xmlns="http://www.w3.org/2000/svg">
<path d="M211 105.5C211 119.289 201.014 131.011 196.037 142.998C190.879 155.431 189.457 170.724 180.099 180.099C170.724 189.473 155.431 190.895 142.998 196.037C130.995 201.014 119.289 211 105.5 211C91.7111 211 79.9889 201.014 68.0021 196.037C55.569 190.879 40.2755 189.457 30.901 180.099C21.5266 170.724 20.1047 155.431 14.9628 142.998C9.98621 131.011 0 119.305 0 105.5C0 91.6946 9.98621 79.9889 14.9628 68.0021C20.1212 55.569 21.5431 40.2755 30.901 30.901C40.2755 21.5266 55.569 20.1047 68.0021 14.9628C79.9889 9.98621 91.7111 0 105.5 0C119.289 0 131.011 9.98621 143.014 14.9628C155.448 20.1212 170.741 21.5431 180.115 30.901C189.49 40.2755 190.912 55.569 196.054 68.0021C201.03 79.9889 211 91.7111 211 105.5Z" fill="#FFFDFD"/>
<path d="M59.2635 95.54C60.6435 95.06 61.3635 94.1 61.3635 92.76C61.3635 90.92 60.0835 89.56 57.8435 89.28C57.1435 89.2 56.7835 89.2 56.0635 89.2H50.8035V103H56.0435C56.8635 103 57.3235 103 58.0035 102.92C59.8635 102.68 61.8635 101.42 61.8635 98.86C61.8635 97.12 61.0235 96 59.2635 95.54ZM53.9435 91.64H55.7635C56.0835 91.64 56.4435 91.66 56.7235 91.7C57.5435 91.82 58.0835 92.26 58.0835 93.18C58.0835 94.1 57.6035 94.56 56.7435 94.7C56.4635 94.74 56.1435 94.76 55.8235 94.76H53.9435V91.64ZM57.0435 100.52C56.7835 100.54 56.4635 100.54 56.1435 100.54H53.9435V97.06H56.0235C56.3435 97.06 56.6635 97.06 56.9835 97.1C57.8635 97.18 58.5835 97.7 58.5835 98.82C58.5835 99.86 57.8635 100.46 57.0435 100.52ZM69.8629 103H72.9229C72.7629 101.82 72.7229 101.1 72.7229 100.3V97.06C72.7229 96.44 72.7029 95.84 72.6629 95.34C72.5029 93.44 71.3629 92.06 68.2029 92.06C65.6029 92.06 63.5429 93.44 63.4829 95.88H66.4829C66.5629 94.82 67.1029 94.22 68.0829 94.22C69.0229 94.22 69.5029 94.74 69.5629 95.38C69.6029 95.74 69.6029 96.02 69.6029 96.3V96.48H68.9229C65.1629 96.48 63.1029 97.84 63.1029 100.16C63.1029 102.18 64.7229 103.28 66.5229 103.28C67.5029 103.28 68.4029 103.06 69.1629 102.58L69.6429 101.44L69.8629 103ZM67.7629 101.12C66.9029 101.12 66.3229 100.7 66.3229 99.9C66.3229 98.66 67.6629 98.18 69.6029 98.34V99.12C69.6029 100.44 68.7029 101.12 67.7629 101.12ZM76.6677 88.22C75.6677 88.22 75.0077 88.84 75.0077 89.8C75.0077 90.78 75.6677 91.4 76.6677 91.4C77.6677 91.4 78.3477 90.78 78.3477 89.8C78.3477 88.84 77.6677 88.22 76.6677 88.22ZM78.2477 103V92.34H75.1077V103H78.2477ZM86.9751 97.62L90.6351 92.34H87.0351L85.1351 95.68L83.2151 92.34H79.5551L83.1551 97.6L79.4151 103H83.0151L85.0551 99.52L87.0151 103H90.6751L86.9751 97.62ZM101.339 97.48C101.339 94.64 99.5787 92.06 96.1787 92.06C92.7987 92.06 90.6587 94.5 90.6587 97.7C90.6587 101.46 92.9987 103.28 95.9787 103.28C98.5787 103.28 100.579 101.98 101.159 99.52H98.0587C97.8787 100.52 97.1387 101.12 96.0387 101.12C94.8587 101.12 93.9787 100.52 93.7987 98.48H101.279C101.319 98.1 101.339 97.76 101.339 97.48ZM96.0387 94.22C97.1987 94.22 97.8987 95 98.0787 96.5H93.8787C94.1387 94.92 94.9187 94.22 96.0387 94.22ZM113.007 103H116.067C115.907 101.82 115.867 101.1 115.867 100.3V97.06C115.867 96.44 115.847 95.84 115.807 95.34C115.647 93.44 114.507 92.06 111.347 92.06C108.747 92.06 106.687 93.44 106.627 95.88H109.627C109.707 94.82 110.247 94.22 111.227 94.22C112.167 94.22 112.647 94.74 112.707 95.38C112.747 95.74 112.747 96.02 112.747 96.3V96.48H112.067C108.307 96.48 106.247 97.84 106.247 100.16C106.247 102.18 107.867 103.28 109.667 103.28C110.647 103.28 111.547 103.06 112.307 102.58L112.787 101.44L113.007 103ZM110.907 101.12C110.047 101.12 109.467 100.7 109.467 99.9C109.467 98.66 110.807 98.18 112.747 98.34V99.12C112.747 100.44 111.847 101.12 110.907 101.12ZM128.992 92.34H125.852V93.74L125.152 92.62C124.612 92.28 123.552 92.06 122.672 92.06C119.932 92.06 117.592 93.94 117.592 97.76C117.592 100.92 119.512 102.98 122.472 102.98C123.552 102.98 124.452 102.72 125.052 102.28L125.852 101.1V101.38C125.852 101.88 125.832 102.34 125.812 102.72C125.732 104.3 124.712 105.04 123.172 105.04C121.872 105.04 121.012 104.52 120.912 103.66L120.892 103.48H117.852L117.872 103.68C118.112 106.06 119.952 107.36 123.092 107.36C126.572 107.36 128.852 105.78 128.972 102.36C128.992 101.78 128.992 100.96 128.992 100.3V92.34ZM123.312 100.82C121.832 100.82 120.812 99.62 120.812 97.52C120.812 95.2 121.892 94.22 123.412 94.22C124.592 94.22 125.852 95.02 125.852 97.3V97.5C125.852 99.94 124.732 100.82 123.312 100.82ZM136.337 92.06C132.797 92.06 130.717 94.34 130.717 97.66C130.717 100.98 132.797 103.28 136.337 103.28C139.857 103.28 141.957 100.98 141.957 97.66C141.957 94.34 139.857 92.06 136.337 92.06ZM136.337 101.12C134.837 101.12 133.937 99.88 133.937 97.66C133.937 95.44 134.837 94.22 136.337 94.22C137.817 94.22 138.717 95.44 138.717 97.66C138.717 99.88 137.817 101.12 136.337 101.12ZM149.523 92.06C148.903 92.06 148.123 92.34 147.583 92.9L146.783 94.38V92.34H143.643V103H146.783V98.54C146.783 95.52 147.843 94.52 150.323 94.68V92.14C150.083 92.1 149.863 92.06 149.523 92.06ZM157.832 103H160.892C160.732 101.82 160.692 101.1 160.692 100.3V97.06C160.692 96.44 160.672 95.84 160.632 95.34C160.472 93.44 159.332 92.06 156.172 92.06C153.572 92.06 151.512 93.44 151.452 95.88H154.452C154.532 94.82 155.072 94.22 156.052 94.22C156.992 94.22 157.472 94.74 157.532 95.38C157.572 95.74 157.572 96.02 157.572 96.3V96.48H156.892C153.132 96.48 151.072 97.84 151.072 100.16C151.072 102.18 152.692 103.28 154.492 103.28C155.472 103.28 156.372 103.06 157.132 102.58L157.612 101.44L157.832 103ZM155.732 101.12C154.872 101.12 154.292 100.7 154.292 99.9C154.292 98.66 155.632 98.18 157.572 98.34V99.12C157.572 100.44 156.672 101.12 155.732 101.12ZM50.2901 119C50.0501 117.14 48.7501 116.06 46.5101 116.06C45.5101 116.06 44.7501 116.26 44.0301 116.74L43.1501 118.02V116.34H40.0101V127H43.1501V122.06C43.1501 119.34 44.0701 118.22 45.3101 118.22C46.5301 118.22 47.1301 118.9 47.2101 119.98C47.2501 120.52 47.2501 121.06 47.2501 121.46V127H50.3901V120.98C50.3901 120.12 50.3701 119.54 50.2901 119ZM57.5873 116.06C54.0473 116.06 51.9673 118.34 51.9673 121.66C51.9673 124.98 54.0473 127.28 57.5873 127.28C61.1073 127.28 63.2073 124.98 63.2073 121.66C63.2073 118.34 61.1073 116.06 57.5873 116.06ZM57.5873 125.12C56.0873 125.12 55.1873 123.88 55.1873 121.66C55.1873 119.44 56.0873 118.22 57.5873 118.22C59.0673 118.22 59.9673 119.44 59.9673 121.66C59.9673 123.88 59.0673 125.12 57.5873 125.12ZM68.9729 116.06C66.2929 116.06 64.5329 117.34 64.5329 119.42C64.5329 121.24 65.8329 122.14 67.8329 122.64C69.7129 123.08 70.3929 123.5 70.3929 124.26C70.3929 124.94 69.7929 125.26 69.0329 125.26C68.1529 125.26 67.4329 124.72 67.2129 123.72H64.1129C64.3929 126.12 66.2929 127.28 69.0129 127.28C71.5129 127.28 73.5329 126.24 73.5329 124.02C73.5329 122.02 72.2129 121.16 70.1529 120.64C68.2529 120.16 67.6729 119.76 67.6729 119.04C67.6729 118.48 68.0929 118.06 68.7729 118.06C69.5529 118.06 70.0129 118.56 70.1929 119.44H73.2929C73.0329 117.5 71.5529 116.06 68.9729 116.06ZM79.1877 116.06C76.5077 116.06 74.7477 117.34 74.7477 119.42C74.7477 121.24 76.0477 122.14 78.0477 122.64C79.9277 123.08 80.6077 123.5 80.6077 124.26C80.6077 124.94 80.0077 125.26 79.2477 125.26C78.3677 125.26 77.6477 124.72 77.4277 123.72H74.3277C74.6077 126.12 76.5077 127.28 79.2277 127.28C81.7277 127.28 83.7477 126.24 83.7477 124.02C83.7477 122.02 82.4277 121.16 80.3677 120.64C78.4677 120.16 77.8877 119.76 77.8877 119.04C77.8877 118.48 78.3077 118.06 78.9877 118.06C79.7677 118.06 80.2277 118.56 80.4077 119.44H83.5077C83.2477 117.5 81.7677 116.06 79.1877 116.06ZM90.2826 116.06C86.7426 116.06 84.6626 118.34 84.6626 121.66C84.6626 124.98 86.7426 127.28 90.2826 127.28C93.8026 127.28 95.9026 124.98 95.9026 121.66C95.9026 118.34 93.8026 116.06 90.2826 116.06ZM90.2826 125.12C88.7826 125.12 87.8826 123.88 87.8826 121.66C87.8826 119.44 88.7826 118.22 90.2826 118.22C91.7626 118.22 92.6626 119.44 92.6626 121.66C92.6626 123.88 91.7626 125.12 90.2826 125.12ZM112.059 124.54H104.959V121.3H111.399V118.86H104.959V115.64H111.859V113.2H101.819V127H112.059V124.54ZM118.079 122.2V120.48H113.279V122.2H118.079ZM126.573 116.06C125.493 116.06 124.433 116.3 123.833 116.76L123.033 117.94V112.3H119.893V127H123.033V125.6L123.733 126.72C124.273 127.06 125.333 127.28 126.213 127.28C128.953 127.28 131.293 125.28 131.293 121.44C131.293 118.3 129.513 116.06 126.573 116.06ZM125.473 125.12C124.273 125.12 123.033 124.32 123.033 122.02V121.54C123.033 119.1 124.133 118.22 125.573 118.22C127.053 118.22 128.073 119.54 128.073 121.64C128.073 123.96 126.993 125.12 125.473 125.12ZM137.958 116.06C134.418 116.06 132.338 118.34 132.338 121.66C132.338 124.98 134.418 127.28 137.958 127.28C141.478 127.28 143.578 124.98 143.578 121.66C143.578 118.34 141.478 116.06 137.958 116.06ZM137.958 125.12C136.458 125.12 135.558 123.88 135.558 121.66C135.558 119.44 136.458 118.22 137.958 118.22C139.438 118.22 140.338 119.44 140.338 121.66C140.338 123.88 139.438 125.12 137.958 125.12ZM150.224 116.06C146.684 116.06 144.604 118.34 144.604 121.66C144.604 124.98 146.684 127.28 150.224 127.28C153.744 127.28 155.844 124.98 155.844 121.66C155.844 118.34 153.744 116.06 150.224 116.06ZM150.224 125.12C148.724 125.12 147.824 123.88 147.824 121.66C147.824 119.44 148.724 118.22 150.224 118.22C151.704 118.22 152.604 119.44 152.604 121.66C152.604 123.88 151.704 125.12 150.224 125.12ZM161.49 122.92L164.59 127H168.49L163.81 121.26L168.43 116.34H164.71L160.67 121.02V112.3H157.53V127H160.67V123.82L161.49 122.92ZM45.1055 140.34H41.9655V141.74L41.2655 140.62C40.7255 140.28 39.6655 140.06 38.7855 140.06C36.0455 140.06 33.7055 141.94 33.7055 145.76C33.7055 148.92 35.6255 150.98 38.5855 150.98C39.6655 150.98 40.5655 150.72 41.1655 150.28L41.9655 149.1V149.38C41.9655 149.88 41.9455 150.34 41.9255 150.72C41.8455 152.3 40.8255 153.04 39.2855 153.04C37.9855 153.04 37.1255 152.52 37.0255 151.66L37.0055 151.48H33.9655L33.9855 151.68C34.2255 154.06 36.0655 155.36 39.2055 155.36C42.6855 155.36 44.9655 153.78 45.0855 150.36C45.1055 149.78 45.1055 148.96 45.1055 148.3V140.34ZM39.4255 148.82C37.9455 148.82 36.9255 147.62 36.9255 145.52C36.9255 143.2 38.0055 142.22 39.5255 142.22C40.7055 142.22 41.9655 143.02 41.9655 145.3V145.5C41.9655 147.94 40.8455 148.82 39.4255 148.82ZM53.3705 140.06C52.7505 140.06 51.9705 140.34 51.4305 140.9L50.6305 142.38V140.34H47.4905V151H50.6305V146.54C50.6305 143.52 51.6905 142.52 54.1705 142.68V140.14C53.9305 140.1 53.7105 140.06 53.3705 140.06ZM61.6793 151H64.7393C64.5793 149.82 64.5393 149.1 64.5393 148.3V145.06C64.5393 144.44 64.5193 143.84 64.4793 143.34C64.3193 141.44 63.1793 140.06 60.0193 140.06C57.4193 140.06 55.3593 141.44 55.2993 143.88H58.2993C58.3793 142.82 58.9193 142.22 59.8993 142.22C60.8393 142.22 61.3193 142.74 61.3793 143.38C61.4193 143.74 61.4193 144.02 61.4193 144.3V144.48H60.7393C56.9793 144.48 54.9193 145.84 54.9193 148.16C54.9193 150.18 56.5393 151.28 58.3393 151.28C59.3193 151.28 60.2193 151.06 60.9793 150.58L61.4593 149.44L61.6793 151ZM59.5793 149.12C58.7193 149.12 58.1393 148.7 58.1393 147.9C58.1393 146.66 59.4793 146.18 61.4193 146.34V147.12C61.4193 148.44 60.5193 149.12 59.5793 149.12ZM70.6841 142.42H72.9441V140.42H70.6841V137.74H67.5441V140.42H65.9241V142.42H67.5441V147.32C67.5441 147.92 67.5441 148.4 67.5841 148.94C67.7041 150.5 68.4641 151.26 70.8041 151.26C71.4841 151.26 72.1041 151.2 72.7441 151.1V149.1C71.1441 149.2 70.7841 148.96 70.7041 147.9C70.6841 147.62 70.6841 147.26 70.6841 146.9V142.42ZM84.6627 140.34H81.5427V146.04C81.5427 148 80.7027 149.1 79.4227 149.1C78.2027 149.1 77.6427 148.46 77.5027 147.38C77.4427 146.84 77.4227 146.26 77.4227 145.92V140.34H74.3027V146.6C74.3027 147.46 74.3227 148.04 74.4027 148.58C74.6427 150.04 75.9627 151.28 78.1627 151.28C79.1627 151.28 79.9227 151.08 80.6427 150.6L81.5427 149.18V151H84.6627V140.34ZM88.6013 136.22C87.6013 136.22 86.9413 136.84 86.9413 137.8C86.9413 138.78 87.6013 139.4 88.6013 139.4C89.6013 139.4 90.2813 138.78 90.2813 137.8C90.2813 136.84 89.6013 136.22 88.6013 136.22ZM90.1813 151V140.34H87.0413V151H90.1813ZM96.3287 142.42H98.5887V140.42H96.3287V137.74H93.1887V140.42H91.5687V142.42H93.1887V147.32C93.1887 147.92 93.1887 148.4 93.2287 148.94C93.3487 150.5 94.1087 151.26 96.4487 151.26C97.1287 151.26 97.7487 151.2 98.3887 151.1V149.1C96.7887 149.2 96.4287 148.96 96.3487 147.9C96.3287 147.62 96.3287 147.26 96.3287 146.9V142.42ZM106.347 151H109.407C109.247 149.82 109.207 149.1 109.207 148.3V145.06C109.207 144.44 109.187 143.84 109.147 143.34C108.987 141.44 107.847 140.06 104.687 140.06C102.087 140.06 100.027 141.44 99.9673 143.88H102.967C103.047 142.82 103.587 142.22 104.567 142.22C105.507 142.22 105.987 142.74 106.047 143.38C106.087 143.74 106.087 144.02 106.087 144.3V144.48H105.407C101.647 144.48 99.5873 145.84 99.5873 148.16C99.5873 150.18 101.207 151.28 103.007 151.28C103.987 151.28 104.887 151.06 105.647 150.58L106.127 149.44L106.347 151ZM104.247 149.12C103.387 149.12 102.807 148.7 102.807 147.9C102.807 146.66 104.147 146.18 106.087 146.34V147.12C106.087 148.44 105.187 149.12 104.247 149.12ZM128.012 142.72C127.772 141.26 126.592 140.06 124.512 140.06C123.552 140.06 122.852 140.26 122.232 140.68L121.152 142.12C120.712 140.94 119.612 140.06 117.832 140.06C116.852 140.06 116.172 140.26 115.532 140.68L114.732 142V140.34H111.592V151H114.732V145.46C114.732 143.28 115.312 142.22 116.512 142.22C117.532 142.22 118.072 142.82 118.212 143.88C118.272 144.42 118.292 145 118.292 145.5V151H121.412V145.46C121.412 143.28 122.012 142.22 123.212 142.22C124.212 142.22 124.772 142.82 124.892 143.88C124.952 144.42 124.972 145 124.972 145.5V151H128.112V144.7C128.112 143.84 128.092 143.26 128.012 142.72ZM140.382 145.48C140.382 142.64 138.622 140.06 135.222 140.06C131.842 140.06 129.702 142.5 129.702 145.7C129.702 149.46 132.042 151.28 135.022 151.28C137.622 151.28 139.622 149.98 140.202 147.52H137.102C136.922 148.52 136.182 149.12 135.082 149.12C133.902 149.12 133.022 148.52 132.842 146.48H140.322C140.362 146.1 140.382 145.76 140.382 145.48ZM135.082 142.22C136.242 142.22 136.942 143 137.122 144.5H132.922C133.182 142.92 133.962 142.22 135.082 142.22ZM152.399 143C152.159 141.14 150.859 140.06 148.619 140.06C147.619 140.06 146.859 140.26 146.139 140.74L145.259 142.02V140.34H142.119V151H145.259V146.06C145.259 143.34 146.179 142.22 147.419 142.22C148.639 142.22 149.239 142.9 149.319 143.98C149.359 144.52 149.359 145.06 149.359 145.46V151H152.499V144.98C152.499 144.12 152.479 143.54 152.399 143ZM158.497 142.42H160.757V140.42H158.497V137.74H155.357V140.42H153.737V142.42H155.357V147.32C155.357 147.92 155.357 148.4 155.397 148.94C155.517 150.5 156.277 151.26 158.617 151.26C159.297 151.26 159.917 151.2 160.557 151.1V149.1C158.957 149.2 158.597 148.96 158.517 147.9C158.497 147.62 158.497 147.26 158.497 146.9V142.42ZM172.159 145.48C172.159 142.64 170.399 140.06 166.999 140.06C163.619 140.06 161.479 142.5 161.479 145.7C161.479 149.46 163.819 151.28 166.799 151.28C169.399 151.28 171.399 149.98 171.979 147.52H168.879C168.699 148.52 167.959 149.12 166.859 149.12C165.679 149.12 164.799 148.52 164.619 146.48H172.099C172.139 146.1 172.159 145.76 172.159 145.48ZM166.859 142.22C168.019 142.22 168.719 143 168.899 144.5H164.699C164.959 142.92 165.739 142.22 166.859 142.22ZM175.317 147.64C174.257 147.64 173.497 148.38 173.497 149.46C173.497 150.52 174.257 151.28 175.317 151.28C176.397 151.28 177.137 150.52 177.137 149.46C177.137 148.38 176.397 147.64 175.317 147.64Z" fill="#5860CC"/>
<line x1="49" y1="76.5" x2="156" y2="76.5" stroke="#5860CC"/>
<path d="M54.398 47.92C51.718 47.92 49.338 49.42 49.338 52C49.338 54.64 51.138 55.62 54.098 56.36C55.978 56.8 56.618 57.46 56.618 58.42C56.618 59.36 55.718 59.96 54.578 59.96C53.318 59.96 52.218 59.28 51.938 57.86H48.778C49.018 60.84 51.258 62.28 54.638 62.28C57.398 62.28 59.898 60.84 59.898 58.16C59.898 55.98 58.578 54.54 55.538 53.82C53.318 53.3 52.618 52.74 52.618 51.7C52.618 50.7 53.318 50.24 54.298 50.24C55.618 50.24 56.338 51.06 56.498 52.34H59.658C59.358 49.84 57.838 47.92 54.398 47.92ZM67.7223 62H70.7823C70.6223 60.82 70.5823 60.1 70.5823 59.3V56.06C70.5823 55.44 70.5623 54.84 70.5223 54.34C70.3623 52.44 69.2223 51.06 66.0623 51.06C63.4623 51.06 61.4023 52.44 61.3423 54.88H64.3423C64.4223 53.82 64.9623 53.22 65.9423 53.22C66.8823 53.22 67.3623 53.74 67.4223 54.38C67.4623 54.74 67.4623 55.02 67.4623 55.3V55.48H66.7823C63.0223 55.48 60.9623 56.84 60.9623 59.16C60.9623 61.18 62.5823 62.28 64.3823 62.28C65.3623 62.28 66.2623 62.06 67.0223 61.58L67.5023 60.44L67.7223 62ZM65.6223 60.12C64.7623 60.12 64.1823 59.7 64.1823 58.9C64.1823 57.66 65.5223 57.18 67.4623 57.34V58.12C67.4623 59.44 66.5623 60.12 65.6223 60.12ZM74.5271 47.22C73.5271 47.22 72.8671 47.84 72.8671 48.8C72.8671 49.78 73.5271 50.4 74.5271 50.4C75.5271 50.4 76.2071 49.78 76.2071 48.8C76.2071 47.84 75.5271 47.22 74.5271 47.22ZM76.1071 62V51.34H72.9671V62H76.1071ZM85.1745 51.06C84.0945 51.06 83.0345 51.3 82.4345 51.76L81.6345 52.94V47.3H78.4945V62H81.6345V60.6L82.3345 61.72C82.8745 62.06 83.9345 62.28 84.8145 62.28C87.5545 62.28 89.8945 60.28 89.8945 56.44C89.8945 53.3 88.1145 51.06 85.1745 51.06ZM84.0745 60.12C82.8745 60.12 81.6345 59.32 81.6345 57.02V56.54C81.6345 54.1 82.7345 53.22 84.1745 53.22C85.6545 53.22 86.6745 54.54 86.6745 56.64C86.6745 58.96 85.5945 60.12 84.0745 60.12ZM97.8199 62H100.88C100.72 60.82 100.68 60.1 100.68 59.3V56.06C100.68 55.44 100.66 54.84 100.62 54.34C100.46 52.44 99.3199 51.06 96.1599 51.06C93.5599 51.06 91.4999 52.44 91.4399 54.88H94.4399C94.5199 53.82 95.0599 53.22 96.0399 53.22C96.9799 53.22 97.4599 53.74 97.5199 54.38C97.5599 54.74 97.5599 55.02 97.5599 55.3V55.48H96.8799C93.1199 55.48 91.0599 56.84 91.0599 59.16C91.0599 61.18 92.6799 62.28 94.4799 62.28C95.4599 62.28 96.3599 62.06 97.1199 61.58L97.5999 60.44L97.8199 62ZM95.7199 60.12C94.8599 60.12 94.2799 59.7 94.2799 58.9C94.2799 57.66 95.6199 57.18 97.5599 57.34V58.12C97.5599 59.44 96.6599 60.12 95.7199 60.12ZM123.196 53.72C122.956 52.26 121.776 51.06 119.696 51.06C118.736 51.06 118.036 51.26 117.416 51.68L116.336 53.12C115.896 51.94 114.796 51.06 113.016 51.06C112.036 51.06 111.356 51.26 110.716 51.68L109.916 53V51.34H106.776V62H109.916V56.46C109.916 54.28 110.496 53.22 111.696 53.22C112.716 53.22 113.256 53.82 113.396 54.88C113.456 55.42 113.476 56 113.476 56.5V62H116.596V56.46C116.596 54.28 117.196 53.22 118.396 53.22C119.396 53.22 119.956 53.82 120.076 54.88C120.136 55.42 120.156 56 120.156 56.5V62H123.296V55.7C123.296 54.84 123.276 54.26 123.196 53.72ZM131.765 62H134.825C134.665 60.82 134.625 60.1 134.625 59.3V56.06C134.625 55.44 134.605 54.84 134.565 54.34C134.405 52.44 133.265 51.06 130.105 51.06C127.505 51.06 125.445 52.44 125.385 54.88H128.385C128.465 53.82 129.005 53.22 129.985 53.22C130.925 53.22 131.405 53.74 131.465 54.38C131.505 54.74 131.505 55.02 131.505 55.3V55.48H130.825C127.065 55.48 125.005 56.84 125.005 59.16C125.005 61.18 126.625 62.28 128.425 62.28C129.405 62.28 130.305 62.06 131.065 61.58L131.545 60.44L131.765 62ZM129.665 60.12C128.805 60.12 128.225 59.7 128.225 58.9C128.225 57.66 129.565 57.18 131.505 57.34V58.12C131.505 59.44 130.605 60.12 129.665 60.12ZM138.57 47.22C137.57 47.22 136.91 47.84 136.91 48.8C136.91 49.78 137.57 50.4 138.57 50.4C139.57 50.4 140.25 49.78 140.25 48.8C140.25 47.84 139.57 47.22 138.57 47.22ZM140.15 62V51.34H137.01V62H140.15ZM146.617 51.06C143.937 51.06 142.177 52.34 142.177 54.42C142.177 56.24 143.477 57.14 145.477 57.64C147.357 58.08 148.037 58.5 148.037 59.26C148.037 59.94 147.437 60.26 146.677 60.26C145.797 60.26 145.077 59.72 144.857 58.72H141.757C142.037 61.12 143.937 62.28 146.657 62.28C149.157 62.28 151.177 61.24 151.177 59.02C151.177 57.02 149.857 56.16 147.797 55.64C145.897 55.16 145.317 54.76 145.317 54.04C145.317 53.48 145.737 53.06 146.417 53.06C147.197 53.06 147.657 53.56 147.837 54.44H150.937C150.677 52.5 149.197 51.06 146.617 51.06ZM155.512 57.94L155.752 48.2H152.812L153.052 57.94H155.512ZM154.272 58.96C153.292 58.96 152.612 59.64 152.612 60.62C152.612 61.6 153.292 62.28 154.272 62.28C155.252 62.28 155.952 61.6 155.952 60.62C155.952 59.64 155.252 58.96 154.272 58.96Z" fill="#5860CC"/>
</svg>
